<mxfile host="app.diagrams.net" modified="2024-07-04T14:36:07.281Z" agent="Mozilla/5.0 (Macintosh; Intel Mac OS X 10_15_7) AppleWebKit/537.36 (KHTML, like Gecko) Chrome/126.0.0.0 Safari/537.36" etag="JjbYIIXUVJOZPOr_bytX" version="24.6.4" type="github">
  <diagram name="Page-1" id="2YBvvXClWsGukQMizWep">
    <mxGraphModel dx="1434" dy="795" grid="1" gridSize="10" guides="1" tooltips="1" connect="0" arrows="1" fold="1" page="1" pageScale="1" pageWidth="1000" pageHeight="200" math="0" shadow="0">
      <root>
        <mxCell id="0" />
        <mxCell id="1" parent="0" />
        <mxCell id="0NN4fOj4kQbzeaCD9uy7-6" value="Web" style="shape=umlLifeline;perimeter=lifelinePerimeter;whiteSpace=wrap;html=1;container=1;dropTarget=0;collapsible=0;recursiveResize=0;outlineConnect=0;portConstraint=eastwest;newEdgeStyle={&quot;curved&quot;:0,&quot;rounded&quot;:0};" vertex="1" parent="1">
          <mxGeometry x="200" y="80" width="40" height="300" as="geometry" />
        </mxCell>
        <mxCell id="0NN4fOj4kQbzeaCD9uy7-7" value="Controller" style="shape=umlLifeline;perimeter=lifelinePerimeter;whiteSpace=wrap;html=1;container=1;dropTarget=0;collapsible=0;recursiveResize=0;outlineConnect=0;portConstraint=eastwest;newEdgeStyle={&quot;curved&quot;:0,&quot;rounded&quot;:0};" vertex="1" parent="1">
          <mxGeometry x="440" y="80" width="80" height="300" as="geometry" />
        </mxCell>
        <mxCell id="0NN4fOj4kQbzeaCD9uy7-8" value="DB" style="shape=umlLifeline;perimeter=lifelinePerimeter;whiteSpace=wrap;html=1;container=1;dropTarget=0;collapsible=0;recursiveResize=0;outlineConnect=0;portConstraint=eastwest;newEdgeStyle={&quot;curved&quot;:0,&quot;rounded&quot;:0};" vertex="1" parent="1">
          <mxGeometry x="680" y="80" width="40" height="300" as="geometry" />
        </mxCell>
        <mxCell id="0NN4fOj4kQbzeaCD9uy7-20" value="1. 게시글 작성 버튼 클릭" style="html=1;verticalAlign=bottom;endArrow=block;curved=0;rounded=0;" edge="1" parent="1" target="0NN4fOj4kQbzeaCD9uy7-6">
          <mxGeometry width="80" relative="1" as="geometry">
            <mxPoint x="60" y="199" as="sourcePoint" />
            <mxPoint x="150" y="240" as="targetPoint" />
          </mxGeometry>
        </mxCell>
        <mxCell id="0NN4fOj4kQbzeaCD9uy7-21" value="user" style="shape=umlLifeline;perimeter=lifelinePerimeter;whiteSpace=wrap;html=1;container=1;dropTarget=0;collapsible=0;recursiveResize=0;outlineConnect=0;portConstraint=eastwest;newEdgeStyle={&quot;curved&quot;:0,&quot;rounded&quot;:0};" vertex="1" parent="1">
          <mxGeometry x="40" y="80" width="40" height="300" as="geometry" />
        </mxCell>
        <mxCell id="0NN4fOj4kQbzeaCD9uy7-22" value="로그인 체크" style="shape=umlFrame;whiteSpace=wrap;html=1;pointerEvents=0;width=90;height=30;" vertex="1" parent="1">
          <mxGeometry x="160" y="210" width="160" height="70" as="geometry" />
        </mxCell>
        <mxCell id="0NN4fOj4kQbzeaCD9uy7-25" value="" style="html=1;points=[[0,0,0,0,5],[0,1,0,0,-5],[1,0,0,0,5],[1,1,0,0,-5]];perimeter=orthogonalPerimeter;outlineConnect=0;targetShapes=umlLifeline;portConstraint=eastwest;newEdgeStyle={&quot;curved&quot;:0,&quot;rounded&quot;:0};" vertex="1" parent="1">
          <mxGeometry x="215" y="190" width="10" height="80" as="geometry" />
        </mxCell>
        <mxCell id="HmJeYSCMMUvm-zzRNn9h-1" value="Actor" style="shape=umlActor;verticalLabelPosition=bottom;verticalAlign=top;html=1;outlineConnect=0;" vertex="1" parent="1">
          <mxGeometry x="40" y="340" width="30" height="60" as="geometry" />
        </mxCell>
      </root>
    </mxGraphModel>
  </diagram>
</mxfile>
